# xmcd
#
# Track frame offsets: 
#        150
#        36135
#        71702
#        104343
#        127849
#        165238
#        187643
#        224967
#        248392
#
# Disc length: 3575 seconds
#
# Revision: 1
# Processed by: cddbd v1.5.1PL0 Copyright (c) Steve Scherf et al.
# Submitted via: ExactAudioCopy v0.95a5
#
DISCID=710df509
DTITLE=Steve Kuhn Trio - Waltz Red Side
DYEAR=2002
DGENRE=Jazz
TTITLE0=Charade
TTITLE1=Remember
TTITLE2=Years Later
TTITLE3=Once Upon A Summertime
TTITLE4=How Am I To Konw?
TTITLE5=My Buddy
TTITLE6=I'll Take Romance
TTITLE7=I'm Glad There Is You
TTITLE8=Pastorale
EXTD=YEAR: 2002
EXTT0=
EXTT1=
EXTT2=
EXTT3=
EXTT4=
EXTT5=
EXTT6=
EXTT7=
EXTT8=
PLAYORDER=
